<?xml version="1.0" encoding="utf-8"?>
<!-- Generator: Adobe Illustrator 24.0.1, SVG Export Plug-In . SVG Version: 6.00 Build 0)  -->
<svg version="1.1" id="Layer_1" xmlns="http://www.w3.org/2000/svg" xmlns:xlink="http://www.w3.org/1999/xlink" x="0px" y="0px"
	 viewBox="0 0 62.4 25.5" style="enable-background:new 0 0 62.4 25.5;" xml:space="preserve">
<style type="text/css">
	.st0{fill:#FBC530;}
	.st1{fill:#FFFFFF;}
	.st2{fill:#111820;}
</style>
<g>
	<circle class="st0" cx="31.4" cy="12.8" r="10.6"/>
	<path class="st1" d="M5.8,11.8c0,1.3-1.5,1.3-1.5,1.3H3.5V15H2.8v-4.4h1.5C4.3,10.5,5.8,10.5,5.8,11.8z M5,11.8
		c0-0.6-0.7-0.6-0.7-0.6H3.5v1.1h0.7C4.3,12.4,5,12.4,5,11.8z"/>
	<path class="st1" d="M10.6,13.1H10V15H9.3v-4.4h1.5c0,0,1.5,0,1.5,1.3c0,0.7-0.5,1-0.9,1.2l0.9,2h-0.8L10.6,13.1z M10,12.4h0.7
		c0,0,0.7,0,0.7-0.6s-0.7-0.5-0.7-0.5H10V12.4z"/>
	<path class="st1" d="M19.8,12.7c0,1.2-1,2.2-2.2,2.2s-2.2-1-2.2-2.2s1-2.2,2.2-2.2l0,0C18.9,10.5,19.8,11.5,19.8,12.7
		C19.8,12.7,19.8,12.7,19.8,12.7z M19.1,12.7c0-0.8-0.7-1.5-1.5-1.5c-0.8,0-1.5,0.7-1.5,1.5c0,0.8,0.7,1.5,1.5,1.5
		C18.4,14.2,19.1,13.6,19.1,12.7C19.1,12.8,19.1,12.8,19.1,12.7z"/>
	<path class="st2" d="M25.7,11.3h-1.1V15h-0.7v-3.7h-1.1v-0.7h2.9V11.3z"/>
	<path class="st2" d="M40,11.3h-1.1V15h-0.7v-3.7h-1.1v-0.7H40V11.3z"/>
	<path class="st1" d="M46.9,10.5l-1.7,2.3V15h-0.7v-2.1l-1.7-2.3h0.9l1.1,1.6l1.1-1.6L46.9,10.5z"/>
	<path class="st1" d="M53.1,11.8c0,1.3-1.5,1.3-1.5,1.3h-0.7V15h-0.7v-4.4h1.5C51.6,10.5,53.1,10.5,53.1,11.8z M52.3,11.8
		c0-0.6-0.7-0.6-0.7-0.6h-0.7v1.1h0.7C51.6,12.4,52.3,12.4,52.3,11.8L52.3,11.8z"/>
	<path class="st1" d="M57.4,11.3v1.1h2.2v0.7h-2.2v1.1h2.2V15h-2.9v-4.4h2.9v0.7L57.4,11.3z"/>
	<path class="st2" d="M30.2,16.2l-3.4-3.4l3.4-3.4l3.4,3.4L30.2,16.2z M27.8,12.8l2.4,2.3l2.3-2.4l-2.4-2.3L27.8,12.8z"/>
	<path class="st2" d="M33.1,13.3l-3.4-3.4L33,6.4l3.4,3.4L33.1,13.3z M30.7,9.9l2.4,2.3l2.3-2.4l-2.4-2.3L30.7,9.9z"/>
	<path class="st2" d="M33.1,19.1l-3.4-3.4l3.4-3.4l3.4,3.4L33.1,19.1z M30.7,15.7l2.4,2.3l2.3-2.4l-2.4-2.4L30.7,15.7z"/>
	<polygon class="st2" points="30.2,10.4 26.2,6.5 27.3,6.5 30.7,9.9 	"/>
	<polygon class="st2" points="30.2,15.1 26.2,19.1 27.3,19.1 30.7,15.6 	"/>
</g>
</svg>
