<?xml version="1.0" encoding="utf-8"?>
<!-- Generator: Adobe Illustrator 24.0.1, SVG Export Plug-In . SVG Version: 6.00 Build 0)  -->
<svg version="1.1" id="Layer_1" xmlns="http://www.w3.org/2000/svg" xmlns:xlink="http://www.w3.org/1999/xlink" x="0px" y="0px"
	 viewBox="0 0 200 74.9" style="enable-background:new 0 0 200 74.9;" xml:space="preserve">
<style type="text/css">
	.st0{fill:#FBC530;}
	.st1{fill:#FFFFFF;}
	.st2{fill:#111820;}
</style>
<g>
	<circle class="st0" cx="100.6" cy="37.5" r="37.5"/>
	<path class="st1" d="M10.4,34.2c0,4.6-5.2,4.6-5.2,4.6H2.6v6.5H0V29.6h5.2C5.2,29.6,10.4,29.6,10.4,34.2z M7.8,34.2
		c0-2-2.6-2-2.6-2H2.6v3.9h2.6C5.2,36.2,7.8,36.2,7.8,34.2z"/>
	<path class="st1" d="M27.6,38.7h-2.1v6.5h-2.6V29.7h5.2c0,0,5.2,0,5.2,4.5c0,2.5-1.6,3.6-3,4.1l3.2,6.9h-2.9L27.6,38.7z M25.5,36.1
		h2.6c0,0,2.6,0,2.6-2s-2.6-1.9-2.6-1.9h-2.6V36.1z"/>
	<path class="st1" d="M60.1,37.4c0,4.3-3.5,7.8-7.8,7.8s-7.8-3.5-7.8-7.8c0-4.3,3.5-7.8,7.8-7.8l0,0C56.6,29.6,60,33.1,60.1,37.4
		C60.1,37.4,60.1,37.4,60.1,37.4z M57.5,37.4c0-2.9-2.3-5.2-5.2-5.2c-2.9,0-5.2,2.3-5.2,5.2c0,2.9,2.3,5.2,5.2,5.2
		C55.1,42.6,57.5,40.3,57.5,37.4C57.5,37.4,57.5,37.4,57.5,37.4z"/>
	<path class="st2" d="M80.6,32.2h-3.9v13h-2.6v-13h-3.9v-2.6h10.4V32.2z"/>
	<path class="st2" d="M131.1,32.2h-3.9v13h-2.6v-13h-3.9v-2.6h10.4V32.2z"/>
	<path class="st1" d="M155.5,29.6l-5.8,8.2v7.4H147v-7.4l-5.8-8.2h3.2l4,5.6l4-5.6L155.5,29.6z"/>
	<path class="st1" d="M177.1,34.2c0,4.6-5.2,4.6-5.2,4.6h-2.6v6.5h-2.6V29.6h5.2C171.9,29.6,177.1,29.6,177.1,34.2z M174.5,34.2
		c0-2-2.6-2-2.6-2h-2.6v3.9h2.6C171.9,36.2,174.5,36.2,174.5,34.2L174.5,34.2z"/>
	<path class="st1" d="M192.2,32.2v3.9h7.8v2.6h-7.8v3.9h7.8v2.6h-10.4V29.7H200v2.6L192.2,32.2z"/>
	<path class="st2" d="M96.6,49.6l-12.1-12l12-12.1l12.1,12L96.6,49.6z M88.2,37.5l8.3,8.3l8.3-8.3l-8.3-8.3L88.2,37.5z"/>
	<path class="st2" d="M106.7,39.3l-12.1-12l12-12.1l12.1,12L106.7,39.3z M98.3,27.3l8.4,8.3l8.3-8.4l-8.3-8.3L98.3,27.3z"/>
	<path class="st2" d="M106.8,59.7l-12.1-12l12-12.1l12.1,12L106.8,59.7z M98.4,47.7l8.3,8.3l8.3-8.3l-8.3-8.3L98.4,47.7z"/>
	<polygon class="st2" points="96.5,29.2 82.5,15.3 86.2,15.2 98.3,27.3 	"/>
	<polygon class="st2" points="96.6,45.7 82.6,59.7 86.3,59.7 98.4,47.6 	"/>
</g>
</svg>
